<?xml version="1.0" encoding="UTF-8" standalone="no"?>
<!-- Created with Inkscape (http://www.inkscape.org/) -->

<svg
   xmlns:dc="http://purl.org/dc/elements/1.1/"
   xmlns:cc="http://creativecommons.org/ns#"
   xmlns:rdf="http://www.w3.org/1999/02/22-rdf-syntax-ns#"
   xmlns:svg="http://www.w3.org/2000/svg"
   xmlns="http://www.w3.org/2000/svg"
   xmlns:xlink="http://www.w3.org/1999/xlink"
   xmlns:sodipodi="http://sodipodi.sourceforge.net/DTD/sodipodi-0.dtd"
   xmlns:inkscape="http://www.inkscape.org/namespaces/inkscape"
   width="1061.7953"
   height="1061.7953"
   viewBox="0 0 280.93335 280.93335"
   version="1.1"
   id="svg8"
   inkscape:version="0.92.4 5da689c313, 2019-01-14"
   sodipodi:docname="icon.svg"
   inkscape:export-filename="/home/simone/Dropbox/Minerals/package/mineralapp/icon/icon.png"
   inkscape:export-xdpi="300"
   inkscape:export-ydpi="300">
  <defs
     id="defs2">
    <linearGradient
       inkscape:collect="always"
       id="linearGradient2480">
      <stop
         style="stop-color:#6300ff;stop-opacity:0.48627451"
         offset="0"
         id="stop2476" />
      <stop
         style="stop-color:#4600ff;stop-opacity:0;"
         offset="1"
         id="stop2478" />
    </linearGradient>
    <linearGradient
       inkscape:collect="always"
       xlink:href="#linearGradient2480"
       id="linearGradient2484"
       x1="-410.01871"
       y1="235.13734"
       x2="-240.27953"
       y2="478.88715"
       gradientUnits="userSpaceOnUse" />
  </defs>
  <sodipodi:namedview
     id="base"
     pagecolor="#ffffff"
     bordercolor="#666666"
     borderopacity="1.0"
     inkscape:pageopacity="0.0"
     inkscape:pageshadow="2"
     inkscape:zoom="0.35"
     inkscape:cx="397.76093"
     inkscape:cy="362.70467"
     inkscape:document-units="mm"
     inkscape:current-layer="layer1"
     showgrid="false"
     inkscape:showpageshadow="false"
     borderlayer="true"
     showborder="true"
     inkscape:window-width="1680"
     inkscape:window-height="986"
     inkscape:window-x="0"
     inkscape:window-y="27"
     inkscape:window-maximized="1"
     fit-margin-top="5"
     fit-margin-left="5"
     fit-margin-right="5"
     fit-margin-bottom="5"
     units="px" />
  <metadata
     id="metadata5">
    <rdf:RDF>
      <cc:Work
         rdf:about="">
        <dc:format>image/svg+xml</dc:format>
        <dc:type
           rdf:resource="http://purl.org/dc/dcmitype/StillImage" />
        <dc:title></dc:title>
      </cc:Work>
    </rdf:RDF>
  </metadata>
  <g
     inkscape:label="Layer 1"
     inkscape:groupmode="layer"
     id="layer1"
     transform="translate(455.69021,-235.4728)">
    <path
       style="opacity:0.98999999;fill:#ffffff;fill-opacity:1;stroke:#9600ff;stroke-width:4;stroke-linecap:round;stroke-linejoin:round;stroke-miterlimit:4;stroke-dasharray:none;stroke-dashoffset:0;stroke-opacity:1"
       d="m -179.46196,374.60348 c 3.32451,87.55739 -92.33276,157.93099 -174.91676,128.9863 -84.57329,-22.71549 -123.68549,-134.85438 -71.53388,-205.22241 46.69536,-74.11235 165.37528,-78.31516 217.19617,-7.69156 18.84682,23.62777 29.32806,53.70822 29.25447,83.92767 z"
       id="path926"
       inkscape:connector-curvature="0" />
    <path
       style="fill:none;fill-opacity:1;fill-rule:evenodd;stroke:#690064;stroke-width:0.90011072;stroke-linecap:round;stroke-linejoin:round;stroke-miterlimit:4;stroke-dasharray:none;stroke-opacity:1"
       d="m -643.85298,446.34257 -39.35417,-96.82175 0.72171,-16.84005 14.91547,-36.80754 20.20805,10.3446 22.85435,21.41092 14.43433,29.83095"
       id="path882"
       inkscape:connector-curvature="0"
       sodipodi:nodetypes="ccccccc" />
    <path
       style="fill:none;fill-opacity:1;fill-rule:evenodd;stroke:#690064;stroke-width:0.90011072;stroke-linecap:round;stroke-linejoin:round;stroke-miterlimit:4;stroke-dasharray:none;stroke-opacity:1"
       d="m -664.41246,302.18824 -0.99236,24.95937 5.29258,4.3303 19.24576,-7.69831 z"
       id="path884"
       inkscape:connector-curvature="0"
       sodipodi:nodetypes="ccccc" />
    <path
       style="fill:none;fill-opacity:1;fill-rule:evenodd;stroke:#690064;stroke-width:0.90011072;stroke-linecap:round;stroke-linejoin:round;stroke-miterlimit:4;stroke-dasharray:none;stroke-opacity:1"
       d="m -660.11224,331.47791 -9.62288,20.20806 -3.84915,-3.84915 8.17945,-20.68921"
       id="path886"
       inkscape:connector-curvature="0" />
    <path
       style="fill:none;fill-opacity:1;fill-rule:evenodd;stroke:#690064;stroke-width:0.90011072;stroke-linecap:round;stroke-linejoin:round;stroke-miterlimit:4;stroke-dasharray:none;stroke-opacity:1"
       d="m -683.20715,349.52082 9.62288,-1.684"
       id="path888"
       inkscape:connector-curvature="0" />
    <path
       style="fill:none;fill-opacity:1;fill-rule:evenodd;stroke:#690064;stroke-width:0.90011072;stroke-linecap:round;stroke-linejoin:round;stroke-miterlimit:4;stroke-dasharray:none;stroke-opacity:1"
       d="m -669.73512,351.68597 29.44944,74.50691"
       id="path892"
       inkscape:connector-curvature="0"
       sodipodi:nodetypes="cc" />
    <path
       style="fill:none;fill-opacity:1;fill-rule:evenodd;stroke:#690064;stroke-width:0.90011072;stroke-linecap:round;stroke-linejoin:round;stroke-miterlimit:4;stroke-dasharray:none;stroke-opacity:1"
       d="m -622.82356,370.93174 -18.04292,-47.15214 12.26918,6.73602 15.113,30.34998"
       id="path894"
       inkscape:connector-curvature="0"
       sodipodi:nodetypes="cccc" />
    <path
       style="fill:none;fill-opacity:1;fill-rule:evenodd;stroke:#690064;stroke-width:0.90011072;stroke-linecap:round;stroke-linejoin:round;stroke-miterlimit:4;stroke-dasharray:none;stroke-opacity:1"
       d="m -647.84306,470.04748 15.87775,-89.25228 21.89207,-23.3355 10.10403,-8.17945 7.21717,-2.6463 22.13266,29.34981 6.49545,31.27438 -3.60859,18.76463 -18.52407,38.97269 13.9532,-69.28478 -11.78805,-37.04812 -14.91548,-2.88686 -11.06632,1.684"
       id="path896"
       inkscape:connector-curvature="0" />
    <path
       style="fill:none;fill-opacity:1;fill-rule:evenodd;stroke:#690064;stroke-width:0.90011072;stroke-linecap:round;stroke-linejoin:round;stroke-miterlimit:4;stroke-dasharray:none;stroke-opacity:1"
       d="m -638.46075,483.03837 16.11833,-75.29909 -4.57087,-23.81664 17.3212,-12.75032 5.77373,21.41092 -18.52406,15.63719"
       id="path898"
       inkscape:connector-curvature="0" />
    <path
       style="fill:none;fill-opacity:1;fill-rule:evenodd;stroke:#690064;stroke-width:0.90011072;stroke-linecap:round;stroke-linejoin:round;stroke-miterlimit:4;stroke-dasharray:none;stroke-opacity:1"
       d="m -603.81836,392.58324 31.51497,3.12744"
       id="path900"
       inkscape:connector-curvature="0" />
    <path
       style="fill:none;fill-opacity:1;fill-rule:evenodd;stroke:#690064;stroke-width:0.90011072;stroke-linecap:round;stroke-linejoin:round;stroke-miterlimit:4;stroke-dasharray:none;stroke-opacity:1"
       d="m -609.59209,371.17232 16.84005,-24.53837"
       id="path902"
       inkscape:connector-curvature="0" />
    <path
       style="fill:none;fill-opacity:1;fill-rule:evenodd;stroke:#690064;stroke-width:0.90011072;stroke-linecap:round;stroke-linejoin:round;stroke-miterlimit:4;stroke-dasharray:none;stroke-opacity:1"
       d="m -631.96531,380.7952 5.05202,3.12744"
       id="path904"
       inkscape:connector-curvature="0" />
    <path
       style="fill:none;fill-opacity:1;fill-rule:evenodd;stroke:#690064;stroke-width:0.90011072;stroke-linecap:round;stroke-linejoin:round;stroke-miterlimit:4;stroke-dasharray:none;stroke-opacity:1"
       d="m -566.52966,391.13981 23.33552,-5.29259 6.97659,-0.24057 7.45773,22.37321 -2.16514,17.80234 -34.16126,56.77503 -20.44865,17.08062 9.38232,-31.75552 19.00521,-29.83095 10.82576,-7.21717 -4.57087,-7.69831 7.69831,-37.28868 -20.92979,21.41092"
       id="path906"
       inkscape:connector-curvature="0"
       sodipodi:nodetypes="ccccccccccccc" />
    <path
       style="fill:none;fill-opacity:1;fill-rule:evenodd;stroke:#690064;stroke-width:0.90011072;stroke-linecap:round;stroke-linejoin:round;stroke-miterlimit:4;stroke-dasharray:none;stroke-opacity:1"
       d="m -546.32158,430.83421 15.39662,-5.05201"
       id="path908"
       inkscape:connector-curvature="0" />
    <path
       style="fill:none;fill-opacity:1;fill-rule:evenodd;stroke:#690064;stroke-width:0.90011072;stroke-linecap:round;stroke-linejoin:round;stroke-miterlimit:4;stroke-dasharray:none;stroke-opacity:1"
       d="m -557.14734,438.05138 -2.16515,-6.97659 8.42004,-7.93889"
       id="path910"
       inkscape:connector-curvature="0" />
    <path
       style="fill:none;fill-opacity:1;fill-rule:evenodd;stroke:#690064;stroke-width:0.90011072;stroke-linecap:round;stroke-linejoin:round;stroke-miterlimit:4;stroke-dasharray:none;stroke-opacity:1"
       d="m -559.31249,431.07479 -8.42003,-5.05202"
       id="path912"
       inkscape:connector-curvature="0" />
    <path
       style="fill:none;fill-opacity:1;fill-rule:evenodd;stroke:#690064;stroke-width:0.90011072;stroke-linecap:round;stroke-linejoin:round;stroke-miterlimit:4;stroke-dasharray:none;stroke-opacity:1"
       d="m -576.15255,467.88233 -10.10404,-2.88687 -7.45774,2.40572 -28.38752,32.95839 -16.3589,-17.3212 -9.38231,-12.99089"
       id="path914"
       inkscape:connector-curvature="0" />
    <path
       style="fill:none;fill-opacity:1;fill-rule:evenodd;stroke:#690064;stroke-width:0.90011072;stroke-linecap:round;stroke-linejoin:round;stroke-miterlimit:4;stroke-dasharray:none;stroke-opacity:1"
       d="m -622.10184,500.35957 12.26917,21.6515 24.2978,-22.37322"
       id="path916"
       inkscape:connector-curvature="0" />
    <path
       style="fill:none;fill-opacity:1;fill-rule:evenodd;stroke:#690064;stroke-width:0.90011072;stroke-linecap:round;stroke-linejoin:round;stroke-miterlimit:4;stroke-dasharray:none;stroke-opacity:1"
       d="m -609.83267,522.01107 8.6606,5.53316 9.38232,-7.21717 24.77895,-12.9909 1.92458,-24.77893"
       id="path918"
       inkscape:connector-curvature="0" />
    <path
       style="fill:none;fill-opacity:1;fill-rule:evenodd;stroke:#690064;stroke-width:0.90011072;stroke-linecap:round;stroke-linejoin:round;stroke-miterlimit:4;stroke-dasharray:none;stroke-opacity:1"
       d="m -585.53487,499.63785 -6.25488,20.68921"
       id="path920"
       inkscape:connector-curvature="0" />
    <path
       style="fill:none;fill-opacity:1;fill-rule:evenodd;stroke:#690064;stroke-width:0.90011072;stroke-linecap:round;stroke-linejoin:miter;stroke-miterlimit:4;stroke-dasharray:none;stroke-opacity:1"
       d="m -664.41246,302.18824 -3.15751,-6.31501"
       id="path922"
       inkscape:connector-curvature="0" />
    <path
       style="fill:none;fill-opacity:1;fill-rule:evenodd;stroke:#690064;stroke-width:0.90011072;stroke-linecap:butt;stroke-linejoin:miter;stroke-miterlimit:4;stroke-dasharray:none;stroke-opacity:1"
       d="m -572.30339,395.71068 5.77373,-4.57087"
       id="path924"
       inkscape:connector-curvature="0" />
    <path
       style="fill:url(#linearGradient2484);fill-opacity:1;fill-rule:evenodd;stroke:none;stroke-width:0.26458332px;stroke-linecap:butt;stroke-linejoin:miter;stroke-opacity:1"
       d="m -325.62135,468.36329 v 0 l -20.12724,-20.88318 -4.34672,-7.74852 -0.18899,-6.2366 3.77976,-19.18229 -11.26298,-25.26027 -10.69078,-26.86058 -16.43707,-39.68953 -1.60362,-7.34991 1.50626,-3.37228 -1.10536,-5.44761 2.93997,-10.15625 8.55262,-21.38156 4.24555,-7.08089 3.30433,-0.33831 12.7626,5.68195 10.42352,8.28535 13.36347,12.82894 5.34539,7.34991 10.84417,25.08599 11.47284,-7.98074 5.58599,-3.23783 4.57025,3.90601 8.17776,11.91155 9.90856,14.52078 4.57713,14.27952 3.52897,-0.0869 20.51504,-4.8327 3.67285,-0.24542 4.14267,3.0736 5.36844,13.42039 -0.0304,6.07328 -0.20774,17.92397 -35.40234,57.41857 -0.33033,11.80433 -2.20018,12.57979 -12.63328,6.39635 -10.05719,5.02054 -9.31985,7.27386 -3.98751,-0.28348 -7.20317,-6.39388 -11.25996,-19.91596 z"
       id="path1159"
       inkscape:connector-curvature="0"
       sodipodi:nodetypes="cccccccccccccccccccccccccccccccccccccccccccc" />
    <path
       style="color:#000000;font-style:normal;font-variant:normal;font-weight:normal;font-stretch:normal;font-size:medium;line-height:normal;font-family:sans-serif;font-variant-ligatures:normal;font-variant-position:normal;font-variant-caps:normal;font-variant-numeric:normal;font-variant-alternates:normal;font-feature-settings:normal;text-indent:0;text-align:start;text-decoration:none;text-decoration-line:none;text-decoration-style:solid;text-decoration-color:#000000;letter-spacing:normal;word-spacing:normal;text-transform:none;writing-mode:lr-tb;direction:ltr;text-orientation:mixed;dominant-baseline:auto;baseline-shift:baseline;text-anchor:start;white-space:normal;shape-padding:0;clip-rule:nonzero;display:inline;overflow:visible;visibility:visible;opacity:1;isolation:auto;mix-blend-mode:normal;color-interpolation:sRGB;color-interpolation-filters:linearRGB;solid-color:#000000;solid-opacity:1;vector-effect:none;fill:#8200ff;fill-opacity:1;fill-rule:evenodd;stroke:none;stroke-width:0.90011072;stroke-linecap:round;stroke-linejoin:round;stroke-miterlimit:4;stroke-dasharray:none;stroke-dashoffset:0;stroke-opacity:1;color-rendering:auto;image-rendering:auto;shape-rendering:auto;text-rendering:auto;enable-background:accumulate"
       d="m -370.69546,264.21818 c -3.85215,6.1296 -5.80682,13.82134 -8.93924,20.55818 -3.03733,8.46556 -8.2332,16.48189 -7.2783,25.82021 -1.97547,11.32403 5.73125,20.93827 8.96305,31.3352 10.05841,24.73945 20.10194,49.48496 30.17557,74.21822 -0.0214,9.10565 -7.22764,19.79385 -1.20035,27.61549 6.54513,10.75452 16.73215,18.52698 24.15693,28.51785 5.3866,7.47463 7.45073,18.10482 15.85893,22.75602 7.94563,6.95193 14.15772,-7.60627 22.55383,-8.72076 6.15228,-4.88208 19.22255,-5.40007 17.75751,-15.44667 0.48338,-6.22587 0.96676,-12.45175 1.45014,-18.67762 11.37513,-18.9613 22.85048,-37.86246 34.16329,-56.86113 0.27197,-8.00451 3.97211,-16.37884 0.23813,-23.99725 -3.13481,-8.16233 -3.62026,-22.3569 -15.99906,-16.6255 -7.96972,-0.004 -23.14951,10.87821 -22.47259,-2.62092 -0.35216,-8.77418 -7.64615,-14.37266 -12.10808,-21.26084 -4.79524,-4.62493 -7.8067,-13.95476 -13.88194,-15.43958 -8.28026,0.0757 -16.22566,17.24145 -19.05959,2.60468 -5.53857,-11.37495 -9.78188,-23.75529 -20.67303,-31.20237 -7.47996,-7.83388 -15.70878,-14.61885 -25.83045,-18.70067 -2.61648,-1.29401 -5.2085,-2.73266 -7.87475,-3.87254 z m 19.69854,12.13725 c 7.59282,7.71045 16.59585,14.38333 23.35237,22.70909 4.44269,9.18105 8.88539,18.36209 13.32808,27.54313 -5.26247,3.28926 -6.83386,-11.77691 -10.59762,-15.42595 -2.66244,-13.46239 -16.20622,-15.76694 -24.569,-24.48972 -4.27814,-5.0956 -19.79167,-15.43646 -16.97117,-18.24739 5.15245,2.63694 10.3049,5.27389 15.45734,7.91084 z m -17.47284,-4.62815 c -0.77009,8.74232 0.14146,17.81762 -1.69299,26.35716 -2.39983,6.07023 -4.79966,12.14045 -7.19949,18.21067 -5.10485,1.397 -9.87357,2.47557 -7.63049,-4.51498 -1.02607,-8.98602 3.47922,-16.78229 6.60774,-24.85306 2.81298,-5.42855 5.40787,-16.39275 8.35913,-18.31122 0.5187,1.03714 1.0374,2.07428 1.5561,3.11143 z m 22.7242,21.0504 c -5.754,2.30184 -11.508,4.60368 -17.262,6.90552 -8.48593,-5.01845 -2.32582,-16.50095 -3.63407,-24.63592 4.8752,1.29136 14.36363,12.58304 20.89607,17.7304 z m 18.75234,47.34388 c -8.15203,5.93776 -10.85688,14.68705 -11.5854,24.33887 -1.65545,9.30508 -3.31036,18.61026 -4.96604,27.9153 -9.39685,-23.7746 -18.79369,-47.5492 -28.19053,-71.32381 4.55463,-6.57887 5.17526,-17.35127 12.64241,-20.82547 6.74954,-1.78529 16.58922,-10.63356 17.33375,1.30648 4.92193,12.86288 9.84387,25.72575 14.76581,38.58863 z m -5.41207,-39.56606 c 3.25785,10.42111 14.90235,22.07296 12.78617,31.70543 -3.93801,5.50479 -7.22601,7.70135 -8.47308,-0.48942 -4.658,-12.17354 -9.316,-24.34707 -13.974,-36.5206 3.2203,1.7682 6.44061,3.53639 9.66091,5.30459 z m -31.9903,0.52296 c -3.67586,4.52057 -5.64934,18.57115 -10.50014,16.50152 1.0038,-5.60435 4.49629,-16.17158 7.75535,-18.74867 0.91493,0.74905 1.82986,1.4981 2.74479,2.24715 z m 75.40108,25.56123 c -5.05285,-1.45032 -15.81339,-0.56114 -7.95183,-7.30485 2.12335,-4.08294 5.56624,5.82119 7.95183,7.30485 z m -13.66841,-2.43602 c -4.04642,0.61479 -10.05947,2.19934 -3.27468,-2.01486 5.48425,-5.27292 8.94963,-4.05772 3.47751,1.71933 z m -70.97706,-2.6417 c 9.81936,24.81908 19.60589,49.65115 29.44574,74.46212 -1.63633,4.80919 -1.81736,23.42691 -5.30048,10.71314 -11.80564,-29.04426 -23.61128,-58.08851 -35.41693,-87.13277 4.55343,-0.67276 8.47158,-2.89221 11.27167,1.95751 z m 85.72293,7.28017 c 3.72036,11.69162 7.44072,23.38324 11.16107,35.07486 -9.78717,-0.971 -19.57434,-1.942 -29.36151,-2.913 -0.76464,-8.61699 -9.14586,-18.53389 -1.7486,-25.75792 3.21008,-7.95485 8.62245,-10.53802 16.51643,-7.06824 l 1.71631,0.33215 z m -25.45529,10.96574 c -6.60441,2.7343 -12.90407,14.16062 -19.73969,10.33299 6.14209,-7.71988 13.82965,-15.60865 21.00913,-22.51965 4.76024,-0.77768 11.50583,-2.80049 4.47504,3.8167 -1.91483,2.78998 -3.82965,5.57997 -5.74448,8.36996 z m 38.77127,5.91954 c 1.03749,4.99608 2.07498,9.99215 3.11247,14.98823 -6.43191,6.9701 -5.44171,-9.83972 -8.41924,-13.1609 -1.17996,-5.00331 -8.13606,-21.18111 -1.15473,-10.39556 2.15384,2.85608 4.30767,5.71215 6.4615,8.56823 z m -33.39383,15.83882 c -5.3982,3.52261 -12.89293,12.97043 -16.95406,12.71421 0.44642,-7.65066 -8.05874,-18.80775 -0.0366,-23.49093 6.27441,-4.60496 13.94455,-13.20052 14.04436,-0.15139 0.98211,3.64271 1.96422,7.28541 2.94633,10.92811 z m -22.86733,-7.70857 c 0.9354,8.94645 5.12708,17.91995 3.66672,26.86777 -4.94312,23.09432 -9.88624,46.18863 -14.82935,69.28295 -8.24106,-7.14255 -8.27908,-16.16011 -5.17725,-25.89538 4.29286,-24.13227 8.58572,-48.26454 12.87859,-72.39681 l 1.73064,1.07074 z m 98.03587,23.55153 c -0.7555,9.63849 -0.30067,20.27063 -12.60801,20.42524 -6.96093,2.9703 -8.30442,-7.87178 -5.95918,-12.9611 1.97778,-9.58219 3.95556,-19.16437 5.93334,-28.74656 10.03593,-1.95058 7.93405,13.56748 12.18649,19.94045 z m -33.78088,-2.82049 c -0.90606,-4.36201 -1.81212,-8.72402 -2.71818,-13.08603 5.50502,-0.92274 17.71283,-5.14979 18.95992,-3.52924 -5.41391,5.53842 -10.82783,11.07684 -16.24174,16.61527 z m 11.74915,17.37465 c -3.98218,5.80841 -11.28109,9.50607 -14.63777,1.78881 2.21035,-7.33707 0.74237,-16.59847 7.8077,-21.39563 3.94303,-3.04369 12.59566,-14.94273 13.35632,-12.00269 -2.17541,10.5365 -4.35083,21.07301 -6.52625,31.60951 z m -13.33407,-15.37013 c -1.97872,9.75723 -2.86139,19.89554 -8.32998,28.51317 -3.42416,7.20364 -6.84833,14.40727 -10.2725,21.6109 4.1038,-20.37739 8.20759,-40.75479 12.31139,-61.13218 6.33272,-7.93774 4.02156,8.28571 6.29109,11.00811 z m -8.35298,-10.68617 c -4.54184,22.55349 -9.08368,45.10698 -13.62552,67.66047 -9.81909,1.29957 -13.7994,11.37172 -20.32085,17.57853 -5.56244,4.02806 -10.90247,17.7619 -16.61928,15.05966 -4.09823,-6.61994 -16.02044,-11.04921 -12.11793,-19.90932 4.85967,-22.70247 9.71935,-45.40494 14.57903,-68.1074 7.99062,-4.61855 13.68803,-16.6217 23.70837,-14.70417 8.13206,0.80741 16.26412,1.61482 24.39618,2.42223 z m 25.8377,33.95607 c -4.03233,3.49353 -12.2466,8.74904 -9.67079,-0.001 4.69992,-4.16903 6.44816,-8.78933 9.67079,0.001 z m -12.49743,1.18752 c 3.62436,5.03528 0.27726,9.13604 -2.61242,13.29811 -4.61275,7.23997 -9.2255,14.47994 -13.83825,21.71991 -5.90678,-0.88016 -10.32504,-2.43289 -5.54396,-8.14228 4.93996,-10.39312 9.87992,-20.78623 14.81988,-31.17935 2.39158,1.43454 4.78316,2.86908 7.17475,4.30361 z m -5.70404,50.18919 c -5.19338,3.49842 -15.36991,14.55322 -17.2999,13.1031 4.20828,-12.21101 5.5972,-25.73402 13.86775,-36.10632 6.80426,-10.23123 11.82419,-22.33769 23.88152,-27.34788 4.74131,-0.97798 16.6632,-7.68159 9.20076,1.07144 -9.88338,16.42655 -19.76676,32.8531 -29.65013,49.27966 z m -11.53056,-13.35836 c -4.87621,11.25753 -4.23327,25.95206 -13.37512,34.55319 -6.4001,4.62308 -13.73071,15.1802 -19.55016,16.10037 -2.13891,-6.72222 -11.32611,-14.13544 -9.14666,-20.43431 8.76331,-10.17471 17.52663,-20.34943 26.28995,-30.52414 5.47748,-2.94332 10.22283,-1.73786 15.78199,0.30489 z m 9.42526,38.1677 c -6.83105,2.9442 -17.38036,10.38665 -21.88726,10.51919 3.08038,-7.07777 2.42205,-16.62777 9.76126,-20.88936 5.10191,-2.86495 16.62572,-18.17956 13.29734,-4.70133 -0.39044,5.02383 -0.78089,10.04767 -1.17134,15.0715 z m -24.68996,13.02039 c -4.49029,3.61436 -8.90533,8.95481 -13.80065,3.27809 -3.97548,-1.80767 3.15527,-4.59292 4.40607,-6.86061 4.8396,-4.4563 9.67921,-8.9126 14.51881,-13.3689 -1.70808,5.65047 -3.41616,11.30095 -5.12423,16.95142 z"
       id="path882-3"
       inkscape:connector-curvature="0" />
  </g>
</svg>
