<?xml version="1.0" encoding="UTF-8" standalone="no"?>
<svg
   xmlns:dc="http://purl.org/dc/elements/1.1/"
   xmlns:cc="http://creativecommons.org/ns#"
   xmlns:rdf="http://www.w3.org/1999/02/22-rdf-syntax-ns#"
   xmlns:svg="http://www.w3.org/2000/svg"
   xmlns="http://www.w3.org/2000/svg"
   xmlns:xlink="http://www.w3.org/1999/xlink"
   xmlns:sodipodi="http://sodipodi.sourceforge.net/DTD/sodipodi-0.dtd"
   xmlns:inkscape="http://www.inkscape.org/namespaces/inkscape"
   inkscape:export-ydpi="96.000008"
   inkscape:export-xdpi="96.000008"
   inkscape:export-filename="mineralapp-hires.png"
   sodipodi:docname="mineralapp-hires.svg"
   inkscape:version="1.0beta2 (2b71d25, 2019-12-03)"
   id="svg8"
   version="1.1"
   viewBox="0 0 270.93335 270.93335"
   height="1024"
   width="1024">
  <defs
     id="defs2">
    <linearGradient
       id="linearGradient2480"
       inkscape:collect="always">
      <stop
         id="stop2476"
         offset="0"
         style="stop-color:#6300ff;stop-opacity:0.48627451" />
      <stop
         id="stop2478"
         offset="1"
         style="stop-color:#4600ff;stop-opacity:0;" />
    </linearGradient>
    <linearGradient
       gradientTransform="matrix(0.98834398,0,0,0.98841146,-9.4470705,0.12964629)"
       gradientUnits="userSpaceOnUse"
       y2="478.88715"
       x2="-240.27953"
       y1="235.13734"
       x1="-410.01871"
       id="linearGradient2484"
       xlink:href="#linearGradient2480"
       inkscape:collect="always" />
  </defs>
  <sodipodi:namedview
     showguides="false"
     inkscape:document-rotation="0"
     units="px"
     fit-margin-bottom="5"
     fit-margin-right="5"
     fit-margin-left="5"
     fit-margin-top="5"
     inkscape:window-maximized="1"
     inkscape:window-y="23"
     inkscape:window-x="0"
     inkscape:window-height="855"
     inkscape:window-width="1440"
     showborder="true"
     borderlayer="true"
     inkscape:showpageshadow="false"
     showgrid="false"
     inkscape:current-layer="layer1"
     inkscape:document-units="mm"
     inkscape:cy="671.2761"
     inkscape:cx="163.47522"
     inkscape:zoom="0.35"
     inkscape:pageshadow="2"
     inkscape:pageopacity="0.0"
     borderopacity="1.0"
     bordercolor="#666666"
     pagecolor="#ffffff"
     id="base" />
  <metadata
     id="metadata5">
    <rdf:RDF>
      <cc:Work
         rdf:about="">
        <dc:format>image/svg+xml</dc:format>
        <dc:type
           rdf:resource="http://purl.org/dc/dcmitype/StillImage" />
        <dc:title></dc:title>
      </cc:Work>
    </rdf:RDF>
  </metadata>
  <g
     transform="translate(455.69021,-235.4728)"
     id="layer1"
     inkscape:groupmode="layer"
     inkscape:label="Layer 1">
    <path
       inkscape:connector-curvature="0"
       id="path926"
       d="m -186.81721,370.39203 c 3.28577,86.54273 -91.25652,156.10082 -172.87791,127.49154 -83.5875,-22.45225 -122.2438,-133.29162 -70.70008,-202.84419 46.15108,-73.2535 163.44765,-77.4076 214.66452,-7.60241 18.62714,23.35396 28.9862,53.08581 28.91347,82.95506 z"
       style="opacity:0.99;fill:#ffffff;fill-opacity:1;stroke:#9600ff;stroke-width:3.95351;stroke-linecap:round;stroke-linejoin:round;stroke-miterlimit:4;stroke-dasharray:none;stroke-dashoffset:0;stroke-opacity:1" />
    <path
       sodipodi:nodetypes="ccccccc"
       inkscape:connector-curvature="0"
       id="path882"
       d="m -643.85298,446.34257 -39.35417,-96.82175 0.72171,-16.84005 14.91547,-36.80754 20.20805,10.3446 22.85435,21.41092 14.43433,29.83095"
       style="fill:none;fill-opacity:1;fill-rule:evenodd;stroke:#690064;stroke-width:0.900111;stroke-linecap:round;stroke-linejoin:round;stroke-miterlimit:4;stroke-dasharray:none;stroke-opacity:1" />
    <path
       sodipodi:nodetypes="ccccc"
       inkscape:connector-curvature="0"
       id="path884"
       d="m -664.41246,302.18824 -0.99236,24.95937 5.29258,4.3303 19.24576,-7.69831 z"
       style="fill:none;fill-opacity:1;fill-rule:evenodd;stroke:#690064;stroke-width:0.900111;stroke-linecap:round;stroke-linejoin:round;stroke-miterlimit:4;stroke-dasharray:none;stroke-opacity:1" />
    <path
       inkscape:connector-curvature="0"
       id="path886"
       d="m -660.11224,331.47791 -9.62288,20.20806 -3.84915,-3.84915 8.17945,-20.68921"
       style="fill:none;fill-opacity:1;fill-rule:evenodd;stroke:#690064;stroke-width:0.900111;stroke-linecap:round;stroke-linejoin:round;stroke-miterlimit:4;stroke-dasharray:none;stroke-opacity:1" />
    <path
       inkscape:connector-curvature="0"
       id="path888"
       d="m -683.20715,349.52082 9.62288,-1.684"
       style="fill:none;fill-opacity:1;fill-rule:evenodd;stroke:#690064;stroke-width:0.900111;stroke-linecap:round;stroke-linejoin:round;stroke-miterlimit:4;stroke-dasharray:none;stroke-opacity:1" />
    <path
       sodipodi:nodetypes="cc"
       inkscape:connector-curvature="0"
       id="path892"
       d="m -669.73512,351.68597 29.44944,74.50691"
       style="fill:none;fill-opacity:1;fill-rule:evenodd;stroke:#690064;stroke-width:0.900111;stroke-linecap:round;stroke-linejoin:round;stroke-miterlimit:4;stroke-dasharray:none;stroke-opacity:1" />
    <path
       sodipodi:nodetypes="cccc"
       inkscape:connector-curvature="0"
       id="path894"
       d="m -622.82356,370.93174 -18.04292,-47.15214 12.26918,6.73602 15.113,30.34998"
       style="fill:none;fill-opacity:1;fill-rule:evenodd;stroke:#690064;stroke-width:0.900111;stroke-linecap:round;stroke-linejoin:round;stroke-miterlimit:4;stroke-dasharray:none;stroke-opacity:1" />
    <path
       inkscape:connector-curvature="0"
       id="path896"
       d="m -647.84306,470.04748 15.87775,-89.25228 21.89207,-23.3355 10.10403,-8.17945 7.21717,-2.6463 22.13266,29.34981 6.49545,31.27438 -3.60859,18.76463 -18.52407,38.97269 13.9532,-69.28478 -11.78805,-37.04812 -14.91548,-2.88686 -11.06632,1.684"
       style="fill:none;fill-opacity:1;fill-rule:evenodd;stroke:#690064;stroke-width:0.900111;stroke-linecap:round;stroke-linejoin:round;stroke-miterlimit:4;stroke-dasharray:none;stroke-opacity:1" />
    <path
       inkscape:connector-curvature="0"
       id="path898"
       d="m -638.46075,483.03837 16.11833,-75.29909 -4.57087,-23.81664 17.3212,-12.75032 5.77373,21.41092 -18.52406,15.63719"
       style="fill:none;fill-opacity:1;fill-rule:evenodd;stroke:#690064;stroke-width:0.900111;stroke-linecap:round;stroke-linejoin:round;stroke-miterlimit:4;stroke-dasharray:none;stroke-opacity:1" />
    <path
       inkscape:connector-curvature="0"
       id="path900"
       d="m -603.81836,392.58324 31.51497,3.12744"
       style="fill:none;fill-opacity:1;fill-rule:evenodd;stroke:#690064;stroke-width:0.900111;stroke-linecap:round;stroke-linejoin:round;stroke-miterlimit:4;stroke-dasharray:none;stroke-opacity:1" />
    <path
       inkscape:connector-curvature="0"
       id="path902"
       d="m -609.59209,371.17232 16.84005,-24.53837"
       style="fill:none;fill-opacity:1;fill-rule:evenodd;stroke:#690064;stroke-width:0.900111;stroke-linecap:round;stroke-linejoin:round;stroke-miterlimit:4;stroke-dasharray:none;stroke-opacity:1" />
    <path
       inkscape:connector-curvature="0"
       id="path904"
       d="m -631.96531,380.7952 5.05202,3.12744"
       style="fill:none;fill-opacity:1;fill-rule:evenodd;stroke:#690064;stroke-width:0.900111;stroke-linecap:round;stroke-linejoin:round;stroke-miterlimit:4;stroke-dasharray:none;stroke-opacity:1" />
    <path
       sodipodi:nodetypes="ccccccccccccc"
       inkscape:connector-curvature="0"
       id="path906"
       d="m -566.52966,391.13981 23.33552,-5.29259 6.97659,-0.24057 7.45773,22.37321 -2.16514,17.80234 -34.16126,56.77503 -20.44865,17.08062 9.38232,-31.75552 19.00521,-29.83095 10.82576,-7.21717 -4.57087,-7.69831 7.69831,-37.28868 -20.92979,21.41092"
       style="fill:none;fill-opacity:1;fill-rule:evenodd;stroke:#690064;stroke-width:0.900111;stroke-linecap:round;stroke-linejoin:round;stroke-miterlimit:4;stroke-dasharray:none;stroke-opacity:1" />
    <path
       inkscape:connector-curvature="0"
       id="path908"
       d="m -546.32158,430.83421 15.39662,-5.05201"
       style="fill:none;fill-opacity:1;fill-rule:evenodd;stroke:#690064;stroke-width:0.900111;stroke-linecap:round;stroke-linejoin:round;stroke-miterlimit:4;stroke-dasharray:none;stroke-opacity:1" />
    <path
       inkscape:connector-curvature="0"
       id="path910"
       d="m -557.14734,438.05138 -2.16515,-6.97659 8.42004,-7.93889"
       style="fill:none;fill-opacity:1;fill-rule:evenodd;stroke:#690064;stroke-width:0.900111;stroke-linecap:round;stroke-linejoin:round;stroke-miterlimit:4;stroke-dasharray:none;stroke-opacity:1" />
    <path
       inkscape:connector-curvature="0"
       id="path912"
       d="m -559.31249,431.07479 -8.42003,-5.05202"
       style="fill:none;fill-opacity:1;fill-rule:evenodd;stroke:#690064;stroke-width:0.900111;stroke-linecap:round;stroke-linejoin:round;stroke-miterlimit:4;stroke-dasharray:none;stroke-opacity:1" />
    <path
       inkscape:connector-curvature="0"
       id="path914"
       d="m -576.15255,467.88233 -10.10404,-2.88687 -7.45774,2.40572 -28.38752,32.95839 -16.3589,-17.3212 -9.38231,-12.99089"
       style="fill:none;fill-opacity:1;fill-rule:evenodd;stroke:#690064;stroke-width:0.900111;stroke-linecap:round;stroke-linejoin:round;stroke-miterlimit:4;stroke-dasharray:none;stroke-opacity:1" />
    <path
       inkscape:connector-curvature="0"
       id="path916"
       d="m -622.10184,500.35957 12.26917,21.6515 24.2978,-22.37322"
       style="fill:none;fill-opacity:1;fill-rule:evenodd;stroke:#690064;stroke-width:0.900111;stroke-linecap:round;stroke-linejoin:round;stroke-miterlimit:4;stroke-dasharray:none;stroke-opacity:1" />
    <path
       inkscape:connector-curvature="0"
       id="path918"
       d="m -609.83267,522.01107 8.6606,5.53316 9.38232,-7.21717 24.77895,-12.9909 1.92458,-24.77893"
       style="fill:none;fill-opacity:1;fill-rule:evenodd;stroke:#690064;stroke-width:0.900111;stroke-linecap:round;stroke-linejoin:round;stroke-miterlimit:4;stroke-dasharray:none;stroke-opacity:1" />
    <path
       inkscape:connector-curvature="0"
       id="path920"
       d="m -585.53487,499.63785 -6.25488,20.68921"
       style="fill:none;fill-opacity:1;fill-rule:evenodd;stroke:#690064;stroke-width:0.900111;stroke-linecap:round;stroke-linejoin:round;stroke-miterlimit:4;stroke-dasharray:none;stroke-opacity:1" />
    <path
       inkscape:connector-curvature="0"
       id="path922"
       d="m -664.41246,302.18824 -3.15751,-6.31501"
       style="fill:none;fill-opacity:1;fill-rule:evenodd;stroke:#690064;stroke-width:0.900111;stroke-linecap:round;stroke-linejoin:miter;stroke-miterlimit:4;stroke-dasharray:none;stroke-opacity:1" />
    <path
       inkscape:connector-curvature="0"
       id="path924"
       d="m -572.30339,395.71068 5.77373,-4.57087"
       style="fill:none;fill-opacity:1;fill-rule:evenodd;stroke:#690064;stroke-width:0.900111;stroke-linecap:butt;stroke-linejoin:miter;stroke-miterlimit:4;stroke-dasharray:none;stroke-opacity:1" />
    <path
       sodipodi:nodetypes="cccccccccccccccccccccccccccccccccccccccccccc"
       inkscape:connector-curvature="0"
       id="path1159"
       d="m -331.27294,463.06531 v 0 l -19.89265,-20.64117 -4.29605,-7.65873 -0.18679,-6.16433 3.73571,-18.96 -11.1317,-24.96753 -10.56617,-26.54932 -16.24547,-39.22958 -1.58493,-7.26474 1.4887,-3.3332 -1.09248,-5.38448 2.90571,-10.03856 8.45292,-21.13377 4.19607,-6.99884 3.26581,-0.33439 12.61385,5.61612 10.30201,8.18932 13.20771,12.68028 5.28309,7.26473 10.71776,24.79528 11.33911,-7.88824 5.52087,-3.20032 4.517,3.86075 8.08243,11.7735 9.79307,14.35251 4.52377,14.11405 3.48784,-0.0859 20.27592,-4.77669 3.63003,-0.24258 4.09438,3.03798 5.30587,13.26487 -0.03,6.0029 -0.20532,17.71626 -34.98968,56.75317 -0.32648,11.66754 -2.17454,12.434 -12.48602,6.32223 -9.93996,4.96236 -9.21122,7.18958 -3.94103,-0.2802 -7.11921,-6.31979 -11.12872,-19.68516 z"
       style="fill:url(#linearGradient2484);fill-opacity:1;fill-rule:evenodd;stroke:none;stroke-width:0.261508px;stroke-linecap:butt;stroke-linejoin:miter;stroke-opacity:1" />
    <path
       inkscape:connector-curvature="0"
       id="path882-3"
       d="m -375.82168,261.28594 c -3.80724,6.05856 -5.73913,13.66116 -8.83504,20.31994 -3.00192,8.36745 -8.13723,16.29089 -7.19346,25.52099 -1.95244,11.1928 5.66445,20.69562 8.85857,30.97208 9.94118,24.45275 19.86764,48.9115 29.82385,73.35813 -0.0211,9.00013 -7.1434,19.56447 -1.18637,27.29547 6.46885,10.62989 16.53714,18.31227 23.87537,28.18736 5.32381,7.38802 7.36388,17.89503 15.67407,22.49232 7.85301,6.87137 13.9927,-7.51812 22.29094,-8.6197 6.08057,-4.8255 18.99849,-5.33749 17.55053,-15.26767 0.47774,-6.15372 0.95549,-12.30745 1.43324,-18.46116 11.24253,-18.74157 22.58413,-37.4237 33.76507,-56.2022 0.26881,-7.91175 3.92582,-16.18904 0.23536,-23.71916 -3.09827,-8.06774 -3.57806,-22.09781 -15.81257,-16.43284 -7.87683,-0.004 -22.87968,10.75215 -22.21065,-2.59054 -0.34805,-8.6725 -7.55702,-14.20611 -11.96695,-21.01446 -4.73934,-4.57134 -7.7157,-13.79305 -13.72014,-15.26066 -8.18374,0.0748 -16.03652,17.04164 -18.83742,2.5745 -5.47401,-11.24313 -9.66785,-23.48001 -20.43206,-30.84079 -7.39278,-7.7431 -15.52568,-14.44943 -25.52937,-18.48395 -2.58598,-1.27902 -5.14779,-2.70099 -7.78297,-3.82766 z m 19.46894,11.99659 c 7.50431,7.62109 16.4024,14.21665 23.08017,22.44592 4.39091,9.07466 8.78183,18.14931 13.17273,27.22395 -5.20113,3.25115 -6.75421,-11.64043 -10.47409,-15.24718 -2.63141,-13.30638 -16.01733,-15.58423 -24.28263,-24.20592 -4.22827,-5.03655 -19.56097,-15.25758 -16.77334,-18.03593 5.09239,2.60638 10.18478,5.21276 15.27716,7.81916 z m -17.26917,-4.57452 c -0.76111,8.64102 0.13981,17.61115 -1.67325,26.05173 -2.37187,5.99987 -4.74373,11.99976 -7.11558,17.99963 -5.04535,1.38081 -9.75849,2.44688 -7.54155,-4.46266 -1.01411,-8.88189 3.43866,-16.5878 6.53072,-24.56504 2.78019,-5.36565 5.34483,-16.20279 8.2617,-18.09904 0.51265,1.02514 1.02531,2.05026 1.53796,3.07538 z m 22.45932,20.80646 c -5.68693,2.27516 -11.37386,4.55033 -17.06079,6.8255 -8.38703,-4.96029 -2.29871,-16.30973 -3.59171,-24.35043 4.81837,1.27639 14.1962,12.43723 20.6525,17.52493 z m 18.53376,46.79524 c -8.05701,5.86894 -10.73034,14.51684 -11.45036,24.05681 -1.63615,9.19726 -3.27177,18.3946 -4.90816,27.59181 -9.28731,-23.49908 -18.57462,-46.99818 -27.86194,-70.49727 4.50155,-6.50264 5.11495,-17.1502 12.49506,-20.58414 6.67086,-1.76459 16.39585,-10.51033 17.1317,1.29134 4.86456,12.71381 9.72914,25.42763 14.5937,38.14145 z m -5.34899,-39.10755 c 3.21988,10.30034 14.72865,21.81716 12.63714,31.33802 -3.8921,5.44098 -7.14178,7.6121 -8.37431,-0.48377 -4.60372,-12.03246 -9.20743,-24.06491 -13.81113,-36.09737 3.18277,1.74771 6.36554,3.49541 9.5483,5.24312 z m -31.61741,0.51689 c -3.63301,4.46819 -5.58349,18.35595 -10.37776,16.31029 0.9921,-5.53939 4.4439,-15.98417 7.66497,-18.5314 0.90426,0.74037 1.80853,1.48075 2.71279,2.22111 z m 74.5222,25.26502 c -4.99396,-1.43352 -15.62908,-0.55464 -7.85915,-7.2202 2.09859,-4.03562 5.50136,5.75374 7.85915,7.2202 z m -13.5091,-2.40779 c -3.99925,0.60767 -9.94221,2.17385 -3.2365,-1.99151 5.42032,-5.21181 8.84531,-4.0107 3.43697,1.69941 z m -70.14974,-2.61108 c 9.7049,24.53146 19.37736,49.07577 29.10252,73.59921 -1.61726,4.75346 -1.79618,23.15542 -5.2387,10.58899 -11.66803,-28.70767 -23.33607,-57.41535 -35.00411,-86.12303 4.50036,-0.66497 8.37284,-2.85869 11.14029,1.93483 z m 84.72374,7.19581 c 3.67699,11.55613 7.35399,23.11224 11.03097,34.66838 -9.67308,-0.95974 -19.34619,-1.9195 -29.01927,-2.87923 -0.75573,-8.51714 -9.03925,-18.31911 -1.72822,-25.45943 3.17267,-7.86267 8.52194,-10.41591 16.32392,-6.98633 l 1.6963,0.3283 z m -25.15859,10.83865 c -6.52743,2.70261 -12.75365,13.99652 -19.5096,10.21325 6.0705,-7.63042 13.66845,-15.42776 20.76424,-22.25868 4.70476,-0.76867 11.37173,-2.76804 4.42289,3.77247 -1.89252,2.75765 -3.78501,5.51531 -5.67753,8.27296 z m 38.31936,5.85094 c 1.02539,4.93819 2.05079,9.87636 3.07619,14.81454 -6.35695,6.88933 -5.37828,-9.72569 -8.32111,-13.00838 -1.1662,-4.94534 -8.04122,-20.93566 -1.14127,-10.2751 2.12874,2.82299 4.25746,5.64596 6.38619,8.46894 z m -33.00459,15.65528 c -5.33529,3.48178 -12.74265,12.82012 -16.75644,12.56687 0.44121,-7.562 -7.96482,-18.5898 -0.0362,-23.21871 6.20127,-4.55159 13.78201,-13.04754 13.88065,-0.14963 0.97067,3.60049 1.94133,7.20098 2.912,10.80147 z m -22.60078,-7.61924 c 0.92449,8.84277 5.06731,17.71229 3.62397,26.5564 -4.88549,22.8267 -9.77101,45.65338 -14.6565,68.48007 -8.145,-7.05978 -8.18258,-15.97284 -5.1169,-25.59529 4.24282,-23.85261 8.48564,-47.70523 12.72847,-71.55784 l 1.71047,1.05833 z m 96.89314,23.2786 c -0.74669,9.52679 -0.29716,20.03573 -12.46105,20.18854 -6.87979,2.93588 -8.20761,-7.78055 -5.88971,-12.81089 1.95472,-9.47115 3.90945,-18.94229 5.86418,-28.41343 9.91895,-1.92798 7.84157,13.41024 12.04444,19.70936 z m -33.38712,-2.78781 c -0.8955,-4.31146 -1.791,-8.62292 -2.6865,-12.93438 5.44085,-0.91205 17.50637,-5.09011 18.73893,-3.48834 -5.35082,5.47424 -10.70164,10.94848 -16.05243,16.42272 z m 11.6122,17.17331 c -3.93577,5.74109 -11.1496,9.3959 -14.46715,1.76807 2.18458,-7.25204 0.73371,-16.40611 7.71668,-21.14767 3.89707,-3.00843 12.44886,-14.76958 13.20065,-11.8636 -2.15005,10.4144 -4.30011,20.82881 -6.45018,31.2432 z m -13.17865,-15.19201 c -1.95566,9.64415 -2.82804,19.66498 -8.23289,28.18275 -3.38424,7.12014 -6.7685,14.2403 -10.15275,21.36045 4.05596,-20.14124 8.11191,-40.2825 12.16788,-60.42375 6.2589,-7.84576 3.97469,8.18969 6.21776,10.88055 z m -8.25562,-10.56234 c -4.48889,22.29213 -8.97779,44.58426 -13.46669,66.87639 -9.70465,1.28451 -13.63856,11.23994 -20.084,17.37482 -5.4976,3.98138 -10.77538,17.55607 -16.42555,14.88514 -4.05046,-6.54322 -15.83371,-10.92116 -11.9767,-19.67859 4.80303,-22.43939 9.60607,-44.87878 14.40911,-67.31815 7.89748,-4.56503 13.52847,-16.42907 23.43202,-14.53376 8.03728,0.79805 16.07455,1.5961 24.11181,2.39415 z m 25.53654,33.56257 c -3.98533,3.45305 -12.10386,8.64765 -9.55807,-9.8e-4 4.64513,-4.12072 6.373,-8.68748 9.55807,9.8e-4 z m -12.35177,1.17376 c 3.58212,4.97693 0.27404,9.03017 -2.58196,13.144 -4.55898,7.15608 -9.11797,14.31214 -13.67695,21.46822 -5.83793,-0.86996 -10.20469,-2.40471 -5.47934,-8.04793 4.88238,-10.27268 9.76476,-20.54535 14.64713,-30.81803 2.36371,1.41792 4.72742,2.83584 7.09112,4.25374 z m -5.63755,49.60757 c -5.13284,3.45788 -15.19075,14.38457 -17.09824,12.95126 4.15922,-12.06951 5.53195,-25.4358 13.7061,-35.6879 6.72495,-10.11267 11.68636,-22.07883 23.60316,-27.03097 4.68604,-0.96664 16.46897,-7.59257 9.09352,1.05903 -9.76819,16.23619 -19.53637,32.47239 -29.30454,48.70858 z m -11.39616,-13.20355 c -4.81937,11.12707 -4.18392,25.65131 -13.21921,34.15277 -6.3255,4.5695 -13.57066,15.00427 -19.32228,15.91378 -2.11398,-6.64431 -11.19409,-13.97162 -9.04004,-20.1975 8.66115,-10.0568 17.32233,-20.11361 25.98349,-30.17041 5.41366,-2.90921 10.10369,-1.71772 15.59804,0.30136 z m 9.31541,37.72539 c -6.75143,2.91008 -17.17777,10.26629 -21.63214,10.39729 3.04448,-6.99575 2.39382,-16.43507 9.64748,-20.64728 5.04244,-2.83175 16.43193,-17.9689 13.14234,-4.64685 -0.38588,4.9656 -0.77179,9.93123 -1.15768,14.89684 z m -24.40218,12.8695 c -4.43795,3.57248 -8.80153,8.85104 -13.63978,3.24011 -3.92914,-1.78673 3.11848,-4.5397 4.35471,-6.78111 4.78319,-4.40466 9.56638,-8.80932 14.34958,-13.21397 -1.68817,5.58499 -3.37635,11.16998 -5.06451,16.75497 z"
       style="color:#000000;font-style:normal;font-variant:normal;font-weight:normal;font-stretch:normal;font-size:medium;line-height:normal;font-family:sans-serif;font-variant-ligatures:normal;font-variant-position:normal;font-variant-caps:normal;font-variant-numeric:normal;font-variant-alternates:normal;font-feature-settings:normal;text-indent:0;text-align:start;text-decoration:none;text-decoration-line:none;text-decoration-style:solid;text-decoration-color:#000000;letter-spacing:normal;word-spacing:normal;text-transform:none;writing-mode:lr-tb;direction:ltr;text-orientation:mixed;dominant-baseline:auto;baseline-shift:baseline;text-anchor:start;white-space:normal;shape-padding:0;clip-rule:nonzero;display:inline;overflow:visible;visibility:visible;opacity:1;isolation:auto;mix-blend-mode:normal;color-interpolation:sRGB;color-interpolation-filters:linearRGB;solid-color:#000000;solid-opacity:1;vector-effect:none;fill:#8200ff;fill-opacity:1;fill-rule:evenodd;stroke:none;stroke-width:0.889649;stroke-linecap:round;stroke-linejoin:round;stroke-miterlimit:4;stroke-dasharray:none;stroke-dashoffset:0;stroke-opacity:1;color-rendering:auto;image-rendering:auto;shape-rendering:auto;text-rendering:auto;enable-background:accumulate" />
  </g>
</svg>
